<?xml version="1.0" encoding="utf-8"?>
<!-- Generator: Adobe Illustrator 17.1.0, SVG Export Plug-In . SVG Version: 6.00 Build 0)  -->
<!DOCTYPE svg PUBLIC "-//W3C//DTD SVG 1.1//EN" "http://www.w3.org/Graphics/SVG/1.1/DTD/svg11.dtd">
<svg version="1.1" id="Layer_1" xmlns="http://www.w3.org/2000/svg" xmlns:xlink="http://www.w3.org/1999/xlink" x="0px" y="0px"
	 viewBox="0 0 243.6 49.2" enable-background="new 0 0 243.6 49.2" xml:space="preserve">
<g>
	<path fill="#6F57A1" d="M31.1,31.2c-2.4,0-3.5,1.7-3.7,3.2c0,0.1,0,0.1,0.1,0.1h7.2c0.1,0,0.1-0.1,0.1-0.1
		C34.6,33,33.6,31.2,31.1,31.2z"/>
	<path fill="#6F57A1" d="M46.4,7.1L31.2,24.2c-0.2,0.2-0.5,0.2-0.7,0l-7.8-8c-0.1-0.2-0.2-0.4,0-0.6l2.6-3.3c0.2-0.3,0.5-0.3,0.7,0
		l4.3,4.8c0.2,0.2,0.5,0.2,0.7,0L43.3,0.5C43.4,0.3,43.3,0,43,0H0.4C0.2,0,0,0.2,0,0.4v48.5c0,0.2,0.2,0.4,0.4,0.4h46.3
		c0.2,0,0.4-0.2,0.4-0.4V7.3C47,7,46.6,6.9,46.4,7.1z M13.1,43.8c-3.7,0-6.4-1.2-8.3-3c-0.2-0.2-0.2-0.4-0.1-0.6l1.8-2.5
		c0.2-0.2,0.5-0.3,0.7-0.1c1.4,1.3,3.5,2.4,6.1,2.4c2.4,0,3.5-1.1,3.5-2.3c0-3.6-11.7-1.1-11.7-8.8c0-3.4,2.9-6.2,7.7-6.2
		c3.1,0,5.6,0.9,7.6,2.6c0.2,0.2,0.2,0.4,0.1,0.6l-1.9,2.4c-0.2,0.2-0.4,0.2-0.6,0.1c-1.6-1.3-3.6-1.9-5.6-1.9c-1.9,0-2.9,0.8-2.9,2
		c0,3.2,11.7,1.1,11.7,8.7C21.2,41,18.6,43.8,13.1,43.8z M38.6,36.8c0,0.2-0.2,0.4-0.4,0.4H27.6c-0.1,0-0.1,0.1-0.1,0.1
		c0.3,1.8,1.8,3.4,4.3,3.4c1.1,0,2.7-0.5,3.7-1.2c0.2-0.1,0.4-0.1,0.6,0.1l1.3,1.9c0.1,0.2,0.1,0.4-0.1,0.5
		c-1.5,1.2-3.7,1.8-5.9,1.8c-4.6,0-8.1-3.1-8.1-7.9c0-4.4,3.2-7.9,7.8-7.9c4.5,0,7.6,3.4,7.6,8.3V36.8z"/>
</g>
<g>
	<path fill="#6F57A1" d="M64.5,25.9c-0.9,0-2-0.1-3.1-0.2c-1.2-0.2-2.3-0.4-3.3-0.6l0.1-1.7c1.1,0.3,2.2,0.5,3.3,0.6
		c1.1,0.2,2.2,0.2,3,0.2c1.7,0,3.1-0.3,4-1c0.9-0.7,1.4-1.7,1.4-2.9c0-0.7-0.1-1.3-0.4-1.8c-0.3-0.5-0.6-0.9-1.1-1.2
		c-0.5-0.3-1-0.6-1.7-0.9s-1.3-0.5-2-0.7c-1.1-0.3-2.1-0.7-2.8-1c-0.8-0.4-1.4-0.8-1.9-1.3c-0.5-0.5-0.9-1-1.1-1.6
		c-0.2-0.6-0.3-1.3-0.3-2.1c0-0.9,0.2-1.6,0.5-2.4c0.3-0.7,0.8-1.3,1.4-1.8c0.6-0.5,1.3-0.9,2.2-1.2s1.8-0.4,2.9-0.4
		c1.5,0,3.3,0.2,5.4,0.7l-0.1,1.7C69.9,6,69,5.9,68.1,5.7c-0.9-0.1-1.7-0.2-2.5-0.2c-1.6,0-2.8,0.4-3.7,1.1
		c-0.9,0.7-1.4,1.7-1.4,2.9c0,0.6,0.1,1,0.3,1.5c0.2,0.4,0.5,0.8,0.8,1.2c0.4,0.4,0.9,0.7,1.6,1c0.6,0.3,1.4,0.6,2.4,0.8
		c0.9,0.3,1.7,0.6,2.5,0.9c0.8,0.3,1.4,0.7,2,1.1c0.6,0.5,1,1,1.3,1.7c0.3,0.7,0.5,1.5,0.5,2.5c0,1.8-0.6,3.2-1.9,4.2
		C68.7,25.4,66.8,25.9,64.5,25.9z"/>
	<path fill="#6F57A1" d="M82,25.8c-2.3,0-4-0.7-5.2-2c-1.2-1.3-1.8-3.2-1.8-5.8c0-2.7,0.6-4.7,1.7-6.1c1.2-1.4,2.8-2.1,5-2.1
		c1.9,0,3.3,0.6,4.2,1.7c1,1.2,1.4,2.9,1.4,5.1c0,0.4,0,0.8,0,1.1c0,0.3-0.1,0.6-0.1,0.8H76.9c0.1,1.9,0.6,3.4,1.4,4.3
		c0.9,0.9,2.1,1.4,3.9,1.4c0.7,0,1.4-0.1,2.2-0.2c0.8-0.1,1.6-0.3,2.4-0.6l0.1,1.6c-0.7,0.3-1.5,0.5-2.4,0.7
		C83.7,25.7,82.8,25.8,82,25.8z M81.8,11.3c-3,0-4.6,1.9-4.8,5.8h8.7c0-2-0.3-3.5-0.9-4.4C84.1,11.8,83.1,11.3,81.8,11.3z"/>
	<path fill="#6F57A1" d="M91.8,2.4h1.9v23.2h-1.9V2.4z"/>
	<path fill="#6F57A1" d="M105.1,25.8c-2.3,0-4-0.7-5.2-2c-1.2-1.3-1.8-3.2-1.8-5.8c0-2.7,0.6-4.7,1.7-6.1c1.2-1.4,2.8-2.1,5-2.1
		c1.9,0,3.3,0.6,4.2,1.7c1,1.2,1.4,2.9,1.4,5.1c0,0.4,0,0.8,0,1.1c0,0.3-0.1,0.6-0.1,0.8H100c0.1,1.9,0.6,3.4,1.4,4.3
		c0.9,0.9,2.1,1.4,3.9,1.4c0.7,0,1.4-0.1,2.2-0.2c0.8-0.1,1.6-0.3,2.4-0.6l0.1,1.6c-0.7,0.3-1.5,0.5-2.4,0.7
		C106.7,25.7,105.9,25.8,105.1,25.8z M104.8,11.3c-3,0-4.6,1.9-4.8,5.8h8.7c0-2-0.3-3.5-0.9-4.4C107.1,11.8,106.2,11.3,104.8,11.3z"
		/>
	<path fill="#6F57A1" d="M114.7,10.1h1.6l0.1,1.8h0.1c0.8-0.4,1.5-0.7,2.1-0.9c0.6-0.3,1.2-0.5,1.7-0.7c0.5-0.2,1-0.3,1.5-0.4
		c0.4-0.1,0.9-0.1,1.3-0.1c1.3,0,2.3,0.3,3,1c0.7,0.7,1,1.7,1,3.2v11.6h-1.9V14.6c0-1.1-0.2-2-0.7-2.5c-0.5-0.5-1.1-0.7-2.1-0.7
		c-0.8,0-1.7,0.2-2.7,0.5c-1,0.3-2.1,0.8-3.2,1.4v12.2h-1.9V10.1z"/>
	<path fill="#6F57A1" d="M133.3,6.6c-0.9,0-1.3-0.4-1.3-1.3c0-0.8,0.4-1.3,1.3-1.3c0.9,0,1.3,0.4,1.3,1.3
		C134.6,6.2,134.2,6.6,133.3,6.6z M132.3,10.1h1.9v15.5h-1.9V10.1z"/>
	<path fill="#6F57A1" d="M143.1,25.8c-2.5,0-3.8-1.4-3.8-4.2V10.1h1.9V21c0,1.1,0.2,1.9,0.6,2.4s1,0.7,1.9,0.7c1,0,2-0.2,3-0.6
		c1-0.4,2.1-0.9,3.2-1.4V10.1h1.9v15.5h-1.6l-0.1-1.9H150c-0.8,0.4-1.5,0.7-2.1,1c-0.6,0.3-1.2,0.5-1.7,0.7c-0.5,0.2-1,0.3-1.5,0.4
		C144.2,25.8,143.7,25.8,143.1,25.8z"/>
	<path fill="#6F57A1" d="M157,10.1h1.6l0.2,1.8h0.1c1.2-0.7,2.3-1.3,3.1-1.6c0.9-0.3,1.7-0.5,2.5-0.5c1.9,0,3.1,0.7,3.6,2.2h0.1
		c0.7-0.4,1.2-0.7,1.8-1c0.5-0.3,1-0.5,1.5-0.7c0.4-0.2,0.9-0.3,1.3-0.4c0.4-0.1,0.8-0.1,1.2-0.1c1.3,0,2.3,0.3,3,1
		c0.7,0.7,1,1.7,1,3.2v11.6H176V14.6c0-1.1-0.2-2-0.7-2.4c-0.5-0.5-1.1-0.7-2.1-0.7c-0.6,0-1.4,0.2-2.2,0.5s-1.7,0.7-2.7,1.3v12.3
		h-1.9V14.6c0-1.1-0.2-2-0.7-2.4c-0.5-0.5-1.1-0.7-2.1-0.7c-0.7,0-1.4,0.2-2.3,0.5c-0.8,0.3-1.7,0.8-2.6,1.3v12.3H157V10.1z"/>
	<path fill="#6F57A1" d="M193.3,25.8c-6.2,0-9.4-3.6-9.4-10.8c0-7.3,3.1-11,9.4-11c0.6,0,1.4,0,2.2,0.1c0.8,0.1,1.7,0.2,2.4,0.4v1.7
		c-0.9-0.2-1.7-0.3-2.4-0.4c-0.8-0.1-1.4-0.1-2-0.1c-2.6,0-4.5,0.7-5.7,2.2c-1.2,1.5-1.9,3.8-1.9,6.9c0,6.1,2.4,9.1,7.3,9.1
		c0.3,0,0.7,0,1.1,0c0.4,0,0.8-0.1,1.3-0.1c0.4-0.1,0.9-0.1,1.3-0.2c0.4-0.1,0.8-0.1,1.1-0.2v1.7c-0.3,0.1-0.7,0.2-1.1,0.3
		c-0.4,0.1-0.8,0.1-1.2,0.2c-0.4,0.1-0.8,0.1-1.2,0.1C194,25.8,193.6,25.8,193.3,25.8z"/>
	<path fill="#6F57A1" d="M206.6,25.8c-2.2,0-3.9-0.7-5.1-2.1c-1.2-1.4-1.8-3.4-1.8-6s0.6-4.6,1.8-6c1.2-1.4,2.9-2.1,5.1-2.1
		c2.2,0,3.9,0.7,5.1,2.1c1.2,1.4,1.8,3.4,1.8,6s-0.6,4.6-1.8,6C210.5,25.2,208.8,25.8,206.6,25.8z M206.6,24.2
		c1.7,0,2.9-0.5,3.7-1.6c0.8-1,1.2-2.7,1.2-4.9s-0.4-3.8-1.2-4.9c-0.8-1-2-1.6-3.7-1.6c-1.7,0-2.9,0.5-3.7,1.6
		c-0.8,1-1.2,2.7-1.2,4.9c0,2.2,0.4,3.8,1.2,4.8C203.6,23.7,204.9,24.2,206.6,24.2z"/>
	<path fill="#6F57A1" d="M217.7,10.1h1.6l0.1,1.8h0.1c0.8-0.4,1.5-0.7,2.1-0.9c0.6-0.3,1.2-0.5,1.7-0.7c0.5-0.2,1-0.3,1.5-0.4
		c0.4-0.1,0.9-0.1,1.3-0.1c1.3,0,2.3,0.3,3,1c0.7,0.7,1,1.7,1,3.2v11.6h-1.9V14.6c0-1.1-0.2-2-0.7-2.5c-0.5-0.5-1.1-0.7-2.1-0.7
		c-0.8,0-1.7,0.2-2.7,0.5c-1,0.3-2.1,0.8-3.2,1.4v12.2h-1.9V10.1z"/>
	<path fill="#6F57A1" d="M236.8,11.8h-3.3v-1.7h3.4V9.3c0-1.4,0.1-2.5,0.3-3.4c0.2-0.9,0.5-1.6,1-2.1c0.5-0.5,1.2-0.9,2-1.1
		c0.9-0.2,2-0.4,3.3-0.4l0.1,1.5c-1,0.1-1.8,0.2-2.5,0.3c-0.6,0.2-1.1,0.4-1.5,0.8c-0.4,0.4-0.6,0.8-0.7,1.4s-0.2,1.4-0.2,2.3v1.5
		h4.1v1.7h-4.1v13.8h-1.9V11.8z"/>
</g>
<g>
	<path fill="#6F57A1" d="M59,36.7h3c0.4,0,0.8,0,1.2,0.1s0.7,0.2,1,0.4c0.3,0.2,0.5,0.5,0.7,0.8c0.2,0.3,0.3,0.7,0.3,1.2
		c0,0.5-0.2,1-0.5,1.4c-0.3,0.4-0.7,0.6-1.3,0.8v0c0.7,0.1,1.2,0.3,1.6,0.7c0.4,0.4,0.6,1,0.6,1.7c0,0.2,0,0.4-0.1,0.7
		c-0.1,0.3-0.2,0.6-0.5,0.9c-0.3,0.3-0.6,0.6-1.1,0.8c-0.5,0.2-1.1,0.3-1.9,0.3h-3V36.7z M60,41h2c0.2,0,0.5,0,0.7-0.1
		s0.5-0.2,0.6-0.3c0.2-0.1,0.3-0.3,0.5-0.5c0.1-0.2,0.2-0.5,0.2-0.8c0-0.1,0-0.2-0.1-0.4c0-0.2-0.1-0.4-0.3-0.6
		c-0.1-0.2-0.4-0.3-0.6-0.5c-0.3-0.1-0.7-0.2-1.1-0.2H60V41z M60,45.7h1.9c0.4,0,0.7,0,1-0.1c0.3-0.1,0.6-0.2,0.8-0.3
		c0.2-0.2,0.4-0.3,0.6-0.6s0.2-0.5,0.2-0.8c0-0.7-0.2-1.1-0.6-1.5c-0.4-0.3-1-0.5-1.8-0.5H60V45.7z"/>
	<path fill="#6F57A1" d="M73,45.7h5.3v0.9H72v-9.9h6.1v0.9H73V41h4.8v0.9H73V45.7z"/>
	<path fill="#6F57A1" d="M85.5,46.6h-1v-9.9h3.1c1,0,1.8,0.2,2.4,0.7c0.6,0.4,0.9,1.1,0.9,2c0,0.7-0.2,1.3-0.7,1.7
		c-0.4,0.5-1.1,0.7-1.9,0.8l2.9,4.7h-1.2L87.2,42h-1.7V46.6z M85.5,41.1h1.8c0.4,0,0.8,0,1.1-0.1c0.3-0.1,0.6-0.2,0.7-0.4
		c0.2-0.2,0.3-0.3,0.4-0.5s0.1-0.4,0.1-0.7c0-0.2,0-0.5-0.1-0.7s-0.2-0.4-0.4-0.6c-0.2-0.2-0.4-0.3-0.7-0.4
		c-0.3-0.1-0.7-0.1-1.1-0.1h-1.8V41.1z"/>
	<path fill="#6F57A1" d="M98,45.7h4.6v0.9H97v-9.9h1V45.7z"/>
	<path fill="#6F57A1" d="M109.2,46.6h-1v-9.9h1V46.6z"/>
	<path fill="#6F57A1" d="M123.3,45.1L123.3,45.1l0-8.4h1v9.9h-1.3l-5.9-8.5h0v8.5h-1v-9.9h1.3L123.3,45.1z"/>
</g>
</svg>
